<!--?xml version="1.0" encoding="utf-8"?-->
<!-- Generator: Adobe Illustrator 23.0.1, SVG Export Plug-In . SVG Version: 6.00 Build 0)  -->
<svg version="1.1" id="グループ化_99" xmlns="http://www.w3.org/2000/svg" xmlns:xlink="http://www.w3.org/1999/xlink"
     x="0px" y="0px" viewBox="0 0 1920 220" style="" xml:space="preserve">
<style type="text/css">
	.st0{fill:none;stroke:#FFF100;stroke-width:4;stroke-linecap:round;stroke-linejoin:round;}
</style>
    <path class="st0 pQNBeatP_0" d="M0,123.4L468.6,123.4L473.4,110L483.7,145.8L496.3,91.2L506.5,138.2L511.3,123.4L592.9,123.4L
	604.1,67.1L623.3,177.7L638.6,98.1L648.9,144.1L663.9,40.4L681,193.2L696.6,97L701.6,122.4L743.5,122.4L749.3,150.3L758.5,90.5L
	775,220L789.3,71.3L793.2,104.9L803.4,26.4L819,169.5L823.9,122.4L873.7,122.4L879.7,81.7L893.3,176.8L906.3,54.7L918.7,162.8L
	929.9,82L940.6,140.3L950.2,104.6L957.5,122.4L996.8,122.4L1003.3,145.3L1015.7,90.3L1028.9,134.4L1031.9,122.4L1124.6,122.4"></path>
    <path class="st0 pQNBeatP_1" d="M1124.6,123.4v23.7h46.4v-40.4c13.5-8,22.6-22.6,22.6-39.5c0-25.3-20.5-45.8-45.8-45.8S1102,41.9,1102,67.2
	c0,16.8,9.1,31.5,22.6,39.5L1124.6,123.4"></path>
    <path class="st0 pQNBeatP_2" d="M1133.3,167.2L1162.6,167.2"></path>
    <path class="st0 pQNBeatP_3" d="M1126.4,157.3L1169.4,157.3"></path>
    <g id="グループ化_99-2_2_">
	<path id="パス_128_2_" class="st0 pQNBeatP_4" d="M1153.2,147.1V86.9l14-20.6c5.2-7.7,0.4-18.5-8.9-19.1h-1c-3.6,0-7,1.3-9.5,3.9
		c-2.5-2.7-6.2-4.3-9.9-4.3h-1c-9.4,0.6-14,12.1-7.9,19.3l8.6,9.8"></path>
</g>
    <path class="st0 pQNBeatP_5" d="M1099.6,20.7L1108.1,26.5"></path>
    <path class="st0 pQNBeatP_6" d="M1121.6,5.4L1126.8,14.3"></path>
    <path class="st0 pQNBeatP_7" d="M1148,0L1148,10.3"></path>
    <path class="st0 pQNBeatP_8" d="M1174.2,5.4L1169.1,14.3"></path>
    <path class="st0 pQNBeatP_9" d="M1187.7,26.5L1196.2,20.7"></path>
    <path class="st0 pQNBeatP_10" d="M1171,122.4L1252.2,122.4L1258,141.3L1263.4,108.3L1275.5,172L1285.6,79.9L1297.4,151.5L1304.6,112.7L
	1315.8,195.5L1326.4,122.4L1445.7,122.4L1449.5,96.8L1462.1,153.4L1470.3,105.6L1475.3,122.4L1920,122.4"></path>
</svg>
